<svg width="87" height="82" viewBox="0 0 87 82" fill="none" xmlns="http://www.w3.org/2000/svg">
<path d="M64.2065 4.66967C63.756 4.21925 62.8484 3.76201 59.1785 3.02667C56.2003 2.42992 50.8918 1.7283 46.0822 1.32224C41.2726 0.91618 37.1063 0.91618 33.6087 1.19769C30.1111 1.4792 27.4086 2.04223 23.8206 3.45832C20.2326 4.87441 15.841 7.1265 13.1846 8.56819C7.02483 11.9111 3.81619 16.715 2.50588 18.7094C0.86658 21.2047 0.738324 28.9582 1.30476 33.6074C1.57677 35.84 2.55365 38.5466 3.80254 41.5102C5.66947 45.9403 8.46369 47.6506 9.94632 49.4778C11.737 51.6848 13.9233 54.4751 14.7832 56.5856C15.6578 58.7321 17.786 64.3365 19.1048 68.4142C19.9779 71.1137 22.1128 74.7235 25.4619 77.9071C27.4567 79.8034 29.7358 80.306 33.7998 80.6472C37.1782 80.9308 43.2688 80.7632 47.0769 80.6506C54.2326 80.439 56.911 78.9479 60.2653 77.4175C67.0673 74.314 67.8371 71.8981 70.9542 68.3903C72.8532 66.2533 75.7467 62.0776 78.1012 58.4692C82.3219 52.0004 84.1068 46.8862 84.8456 43.7623C85.3399 41.6717 85.3625 37.7994 85.3062 32.7987C85.2568 28.4057 83.7724 25.0477 83.0336 21.7992C82.3934 18.9838 81.3838 16.7354 80.0803 14.2343C78.6054 11.4041 77.0639 10.4773 75.9839 8.77122C74.6188 6.61461 72.4027 6.49182 70.4697 6.03628C68.8815 5.66202 67.2843 5.46814 65.9177 5.01261C65.237 4.78569 64.5511 4.55707 63.8704 4.33015C63.5274 4.21584 63.1896 4.10324 62.8416 3.98722" stroke="white" stroke-width="2" stroke-linecap="round"/>
<path d="M34.8608 25.1433C34.8608 25.4811 34.8608 25.8189 34.8608 30.7224C34.8608 35.6258 34.8608 45.0846 35.9306 49.5069C37.0003 53.9292 39.1398 53.0283 40.6924 52.4517C44.3734 51.0844 46.2237 50.2849 48.1619 49.0906C50.5501 47.6189 52.939 45.3917 55.6654 42.841C56.4673 41.8702 57.1498 41.1844 57.8885 40.5036C58.1769 40.1607 58.2895 39.8229 58.7467 39.4748" stroke="white" stroke-width="2" stroke-linecap="round"/>
<path d="M35.5435 23.7783C36.3351 24.0035 38.1504 24.686 40.481 25.7643C43.2623 27.051 45.4254 27.8662 48.1586 29.5723C50.5491 31.0646 51.9155 31.9609 53.5653 32.6485C55.0781 33.2789 56.6927 33.8991 58.2299 34.7505C59.5159 35.4627 60.1084 36.7415 60.395 37.4223C59.8934 38.103 59.2041 38.7889 58.7503 39.4696C58.5217 39.8126 58.2964 40.1504 57.7232 40.4984" stroke="white" stroke-width="2" stroke-linecap="round"/>
</svg>
