<svg width="87" height="82" viewBox="0 0 87 82" fill="none" xmlns="http://www.w3.org/2000/svg">
<path d="M64.2065 4.66967C63.756 4.21925 62.8484 3.76201 59.1785 3.02667C56.2003 2.42992 50.8918 1.7283 46.0822 1.32224C41.2726 0.91618 37.1063 0.91618 33.6087 1.19769C30.1111 1.4792 27.4086 2.04223 23.8206 3.45832C20.2326 4.87441 15.841 7.1265 13.1846 8.56819C7.02483 11.9111 3.81619 16.715 2.50588 18.7094C0.86658 21.2047 0.738324 28.9582 1.30476 33.6074C1.57677 35.84 2.55365 38.5466 3.80254 41.5102C5.66947 45.9403 8.46369 47.6506 9.94632 49.4778C11.737 51.6848 13.9233 54.4751 14.7832 56.5856C15.6578 58.7321 17.786 64.3365 19.1048 68.4142C19.9779 71.1137 22.1128 74.7235 25.4619 77.9071C27.4567 79.8034 29.7358 80.306 33.7998 80.6472C37.1782 80.9308 43.2688 80.7632 47.0769 80.6506C54.2326 80.439 56.911 78.9479 60.2653 77.4175C67.0673 74.314 67.8371 71.8981 70.9542 68.3903C72.8532 66.2533 75.7467 62.0776 78.1012 58.4692C82.3219 52.0004 84.1068 46.8862 84.8456 43.7623C85.3399 41.6717 85.3625 37.7994 85.3062 32.7987C85.2568 28.4057 83.7724 25.0477 83.0336 21.7992C82.3934 18.9838 81.3838 16.7354 80.0803 14.2343C78.6054 11.4041 77.0639 10.4773 75.9839 8.77122C74.6188 6.61461 72.4027 6.49182 70.4697 6.03628C68.8815 5.66202 67.2843 5.46814 65.9177 5.01261C65.237 4.78569 64.5511 4.55707 63.8704 4.33015C63.5274 4.21584 63.1896 4.10324 62.8416 3.98722" stroke="white" stroke-width="2" stroke-linecap="round"/>
<path d="M35.9175 25.854C35.9175 26.8095 35.9175 27.7649 35.9175 30.9642C35.9175 34.1635 35.9175 39.5777 35.9971 42.6853C36.1144 47.2617 36.5062 47.8872 36.6944 48.7711C36.7217 49.4378 36.7748 49.9799 36.9083 50.4335C36.9887 50.7278 37.0949 51.1525 37.2043 51.9117" stroke="white" stroke-width="2" stroke-linecap="round"/>
<path d="M51.6812 23.7629V52.2334" stroke="white" stroke-width="2" stroke-linecap="round"/>
</svg>
